<svg xmlns="http://www.w3.org/2000/svg" viewBox="0 0 640 220"><g fill="#fff"><path d="M34 169C123 48 241 12 424 39c-83 2-168 20-232 62-37 24-70 53-107 93 0 0-15-17-51-25z"/><path d="M95 142c49-36 108-57 166-55 35 1 67 9 93 23 26 15 39 34 35 57-4 30-33 46-73 50-62 7-125-15-178-46 58 10 110 12 151-1 29-9 45-24 34-43-10-18-38-28-77-29-47-2-96 12-151 44z"/><path d="M369 200c65-92 132-145 237-169-55 42-101 89-141 147-20 29-43 32-96 22z"/><path d="M405 73c38 20 58 47 63 79 15-34 36-62 66-86-51 13-93 13-129 7z"/></g></svg>
